<?xml version="1.0" standalone="no"?>
<!DOCTYPE svg PUBLIC "-//W3C//DTD SVG 20010904//EN"
 "http://www.w3.org/TR/2001/REC-SVG-20010904/DTD/svg10.dtd">
<svg version="1.0" xmlns="http://www.w3.org/2000/svg"
 width="3335.000000pt" height="3335.000000pt" viewBox="0 0 3335.000000 3335.000000"
 preserveAspectRatio="xMidYMid meet">
<metadata>
Created by potrace 1.14, written by Peter Selinger 2001-2017
</metadata>
<g transform="translate(0.000000,3335.000000) scale(0.100000,-0.100000)"
fill="#000000" stroke="none">
<path d="M3015 22328 c-5 -13 -207 -770 -244 -913 -56 -214 -193 -729 -247
-925 -14 -52 -27 -102 -29 -110 -2 -9 -17 -67 -34 -130 -17 -63 -67 -250 -111
-415 -44 -165 -101 -376 -126 -470 -25 -93 -48 -177 -49 -185 -2 -8 -31 -118
-65 -245 -34 -126 -63 -237 -65 -245 -2 -8 -45 -168 -95 -355 -51 -187 -100
-371 -110 -410 -17 -66 -64 -245 -110 -415 -12 -41 -34 -124 -50 -185 -28
-107 -57 -217 -106 -400 -14 -49 -26 -97 -28 -105 -2 -8 -11 -42 -21 -75 -15
-56 -50 -190 -59 -227 -3 -9 -16 -59 -30 -110 -100 -374 -149 -558 -176 -658
-17 -63 -33 -123 -35 -133 -2 -10 -7 -27 -10 -37 -3 -10 -8 -27 -10 -37 -8
-33 -32 -126 -95 -358 -34 -126 -68 -255 -76 -285 -8 -30 -19 -71 -25 -90 -5
-19 -11 -42 -13 -50 -23 -89 -51 -198 -81 -305 -20 -71 -38 -137 -40 -147 -3
-14 -197 -744 -261 -983 -14 -49 -26 -97 -28 -106 -6 -24 -68 -255 -266 -994
-72 -269 -133 -499 -135 -509 -4 -19 -171 -642 -181 -678 -5 -17 722 -18
15164 -18 l15169 0 41 153 c39 141 169 633 177 667 4 17 98 367 140 525 15 55
28 107 31 115 11 43 27 104 79 300 62 230 136 511 166 625 50 193 101 387 119
450 11 39 22 79 25 90 2 11 27 106 55 210 28 105 64 240 80 300 16 61 43 162
60 225 17 63 33 122 35 130 1 8 13 51 24 95 12 44 24 88 26 97 2 10 15 60 30
112 25 93 92 346 99 376 8 31 78 295 96 360 14 49 200 752 205 770 2 8 12 49
23 90 30 112 93 350 97 369 3 9 14 50 25 91 12 41 23 83 25 92 2 10 15 59 29
110 14 51 37 138 51 193 15 55 54 201 87 325 32 124 73 275 89 335 16 61 31
117 33 127 3 9 39 146 81 305 42 158 92 348 111 420 19 73 39 144 44 158 5 14
7 25 5 25 -2 0 0 11 5 25 5 14 12 36 14 48 3 12 17 65 31 117 15 52 28 102 30
110 1 8 8 35 15 60 7 25 14 52 16 60 2 8 11 42 20 75 9 33 18 67 20 75 3 15
30 114 99 370 20 74 54 203 75 285 22 83 53 200 69 260 29 109 56 210 105 395
14 52 34 131 46 175 12 44 26 96 31 115 5 19 11 42 13 50 2 9 54 203 115 432
61 229 111 419 111 422 0 3 -6822 6 -15160 6 -12119 0 -15162 -3 -15165 -12z"/>
</g>
</svg>
